<?xml version="1.0" standalone="no"?>
<!DOCTYPE svg PUBLIC "-//W3C//DTD SVG 20010904//EN"
 "http://www.w3.org/TR/2001/REC-SVG-20010904/DTD/svg10.dtd">
<svg version="1.0" xmlns="http://www.w3.org/2000/svg"
 width="600.000000pt" height="600.000000pt" viewBox="0 0 600.000000 600.000000"
 preserveAspectRatio="xMidYMid meet">

<g transform="translate(0.000000,600.000000) scale(0.100000,-0.100000)"
fill="#000000" stroke="none">
<path d="M2779 5106 c-41 -8 -90 -21 -107 -30 -25 -13 -37 -14 -53 -6 -26 15
-49 6 -49 -18 0 -11 -7 -25 -15 -32 -11 -9 -14 -22 -10 -39 3 -16 -1 -40 -11
-60 -40 -81 -55 -205 -34 -283 9 -31 8 -42 -6 -63 -21 -33 -15 -112 13 -151
14 -19 18 -36 13 -49 -10 -27 -2 -45 20 -45 11 0 22 -4 25 -10 3 -5 18 -10 32
-10 18 0 38 -12 59 -35 22 -24 27 -35 16 -35 -23 0 -94 -80 -89 -100 5 -20
-22 -34 -198 -101 -251 -96 -300 -170 -420 -643 -41 -161 -44 -206 -16 -213
17 -4 19 -17 22 -121 4 -109 6 -121 35 -172 45 -79 71 -95 154 -95 62 0 69 -2
67 -19 -1 -10 4 -21 11 -23 8 -3 12 6 12 25 0 25 7 33 48 54 38 19 297 154
427 222 17 9 34 16 39 16 6 0 28 12 49 27 l39 27 62 -23 c33 -12 84 -31 111
-42 39 -15 74 -19 153 -18 l104 2 3 -124 c3 -136 12 -192 29 -186 6 2 10 11
10 20 -1 10 9 18 26 22 42 9 119 63 135 96 10 18 15 58 15 112 l0 84 73 7
c140 13 322 37 353 47 40 12 58 53 79 174 51 306 75 458 75 485 l0 30 -70 0
c-79 0 -331 -24 -460 -44 -63 -10 -87 -11 -92 -2 -4 6 -20 43 -34 81 -35 90
-87 143 -169 170 -93 31 -95 29 -20 -14 75 -42 119 -80 140 -122 11 -20 55
-129 55 -135 0 -1 -19 -4 -42 -8 -24 -4 -53 -13 -65 -21 -31 -21 -74 -160
-158 -512 -6 -26 -36 -26 -75 0 -30 19 -116 35 -107 20 4 -6 24 -13 46 -17 47
-7 91 -40 76 -55 -8 -8 -26 -5 -62 11 l-51 21 -51 -22 c-28 -11 -54 -20 -59
-19 -4 2 -31 -8 -60 -21 -60 -28 -75 -22 -92 38 -18 65 -13 90 18 97 54 12
122 36 127 45 8 11 9 12 -49 -6 -28 -8 -58 -13 -67 -10 -10 4 -35 -3 -56 -14
-33 -18 -323 -101 -352 -101 -6 0 -8 57 -5 163 4 110 2 157 -4 148 -9 -13 -13
-13 -28 0 -16 13 -17 12 -10 -6 17 -42 18 -70 6 -190 -11 -109 -15 -123 -29
-116 -27 14 -161 49 -239 61 l-74 12 7 37 c3 20 24 104 47 186 76 280 121 382
202 453 37 32 129 83 176 97 46 13 165 67 181 82 15 12 20 10 48 -24 17 -21
54 -82 82 -135 27 -54 54 -98 58 -98 5 0 34 34 66 75 31 41 59 75 62 75 2 0 1
-17 -3 -37 -12 -60 -8 -71 40 -124 27 -30 46 -61 46 -74 0 -13 5 -27 12 -31
17 -11 3 75 -15 94 -19 19 -7 51 39 104 18 20 42 58 53 84 18 40 20 53 10 82
-13 39 -9 45 45 62 23 7 60 34 87 60 54 54 74 110 65 174 -4 23 -6 75 -6 116
1 41 -6 120 -16 175 -19 115 -24 194 -12 201 4 3 8 13 8 23 0 10 7 24 15 31
17 14 21 70 5 70 -6 0 -15 11 -20 25 -5 14 -18 28 -27 32 -10 4 -22 12 -26 20
-5 8 -27 13 -57 13 -27 0 -59 4 -72 9 -44 17 -210 20 -289 7z m232 -251 c53
-30 59 -30 59 -7 0 28 9 32 45 16 19 -8 45 -14 58 -14 21 0 24 -7 35 -70 7
-39 12 -74 12 -79 0 -7 -39 -15 -115 -24 -12 -1 -21 -11 -23 -24 -3 -20 1 -23
30 -23 18 0 46 7 62 15 56 30 58 27 55 -107 -1 -68 1 -135 5 -149 11 -38 -10
-104 -44 -143 -65 -73 -227 -105 -324 -63 -54 24 -56 14 -6 -19 32 -21 58 -29
112 -33 l71 -6 12 -47 c14 -55 3 -80 -66 -155 -22 -24 -39 -50 -39 -59 0 -15
-2 -15 -21 2 -18 16 -20 25 -14 77 6 53 5 61 -16 83 -13 14 -39 35 -59 46 -19
12 -54 37 -78 56 -43 34 -43 34 -26 60 12 18 13 27 6 30 -7 2 -12 12 -12 23 0
10 -27 47 -60 80 -33 34 -62 70 -65 80 -4 11 -15 19 -25 19 -29 0 -60 47 -60
92 0 77 40 102 86 53 19 -21 28 -24 43 -16 16 9 18 16 9 55 -11 52 11 109 40
104 11 -2 31 19 60 62 31 45 50 64 62 62 10 -2 25 7 33 19 l15 21 35 -26 c37
-28 47 -26 47 11 0 29 8 29 61 -2z m-301 -650 c0 -8 -4 -15 -9 -15 -5 0 -14 7
-21 15 -10 13 -9 15 9 15 12 0 21 -6 21 -15z m-19 -39 c22 -24 65 -61 96 -82
32 -20 68 -46 80 -57 l22 -19 -56 -67 c-31 -36 -59 -67 -62 -69 -4 -1 -23 31
-43 72 -20 40 -57 99 -82 130 -25 30 -46 58 -46 61 0 7 44 75 49 75 2 0 21
-20 42 -44z m1365 -412 c-4 -14 -22 -116 -41 -227 -55 -322 -62 -350 -83 -368
-14 -11 -70 -21 -188 -33 -93 -9 -256 -28 -362 -42 -254 -32 -280 -31 -392 9
l-92 34 48 18 c41 15 52 16 78 5 17 -7 46 -15 64 -17 28 -5 32 -2 32 17 0 15
5 20 18 18 13 -3 17 -13 15 -48 -4 -69 10 -28 57 170 55 234 106 397 128 409
21 11 321 58 447 70 50 5 132 9 184 10 l93 1 -6 -26z m-1362 -566 c4 -28 14
-64 22 -80 9 -17 13 -32 10 -35 -7 -7 -304 -161 -413 -214 -108 -52 -183 -61
-233 -27 -20 13 -47 47 -63 78 -24 48 -28 71 -34 172 -4 87 -9 115 -18 111 -7
-2 -16 0 -20 6 -14 23 28 22 132 -3 167 -41 197 -57 127 -71 -20 -3 -34 -8
-31 -11 4 -4 320 73 452 110 28 8 53 15 56 15 4 1 10 -22 13 -51z m786 -135
c0 -5 -7 -44 -15 -88 -16 -83 -35 -114 -87 -141 -53 -28 -64 -20 -72 47 -3 34
-6 86 -6 115 0 59 1 60 85 67 79 7 95 7 95 0z"/>
<path d="M2853 4661 c-24 -11 -43 -22 -43 -25 0 -2 28 -5 63 -5 34 -1 89 -2
122 -3 54 -3 60 -1 60 17 0 16 -7 20 -40 21 -22 1 -58 4 -80 8 -29 5 -51 1
-82 -13z"/>
<path d="M2910 4604 c-15 -17 -3 -70 15 -68 17 2 28 31 21 57 -7 31 -18 34
-36 11z"/>
<path d="M3150 4600 c-13 -25 -4 -60 16 -60 19 0 28 24 20 55 -8 30 -22 32
-36 5z"/>
<path d="M2570 4518 c24 -26 32 -30 42 -19 11 10 8 16 -11 32 -13 10 -31 19
-42 19 -15 0 -13 -5 11 -32z"/>
<path d="M3095 4530 c33 -36 0 -64 -47 -39 -29 16 -37 0 -9 -22 29 -24 53 -24
74 -1 29 32 16 82 -22 82 -11 0 -11 -4 4 -20z"/>
<path d="M3010 4382 c0 -31 45 -58 77 -46 29 10 51 39 40 51 -4 4 -17 2 -27
-5 -27 -17 -50 -15 -72 5 -17 15 -18 15 -18 -5z"/>
<path d="M3680 3511 c0 -10 -7 -25 -16 -32 -9 -7 -20 -22 -25 -34 -5 -11 -15
-28 -21 -38 -11 -15 -10 -20 6 -33 29 -21 119 -19 139 4 23 26 21 38 -10 70
-16 15 -34 40 -42 55 -17 31 -31 35 -31 8z m47 -82 c-4 -16 -1 -18 20 -13 33
9 27 -15 -8 -33 -33 -17 -71 -16 -95 2 -18 14 -18 16 -2 28 10 8 15 17 11 20
-3 4 5 17 17 30 23 24 23 24 42 5 12 -12 18 -28 15 -39z"/>
<path d="M3090 4112 c0 -5 9 -17 21 -28 27 -24 20 -62 -21 -117 -16 -23 -30
-47 -30 -54 0 -9 -8 -11 -24 -7 -18 4 -27 1 -36 -16 -10 -19 -10 -20 9 -8 17
10 23 9 39 -5 26 -24 32 -21 32 12 0 17 14 46 35 74 51 67 47 117 -12 151 -7
4 -13 3 -13 -2z"/>
<path d="M2381 3840 c0 -14 8 -74 19 -134 11 -60 20 -122 20 -138 0 -15 5 -28
10 -28 6 0 10 15 10 33 0 73 -57 331 -59 267z"/>
<path d="M2862 3848 c5 -15 68 -51 68 -39 0 5 -16 19 -36 30 -20 12 -34 16
-32 9z"/>
<path d="M2510 3806 c-9 -8 1 -186 11 -186 5 0 9 35 8 78 0 72 -9 119 -19 108z"/>
<path d="M3000 3359 c-63 -22 -120 -48 -105 -49 6 0 45 11 88 25 99 32 107 31
146 -6 18 -17 36 -28 39 -24 10 10 -71 74 -93 74 -11 0 -45 -9 -75 -20z"/>
<path d="M3002 3308 c-76 -14 -58 -20 24 -9 61 9 72 8 103 -10 43 -25 52 -18
13 10 -32 23 -57 24 -140 9z"/>
<path d="M3075 3253 c17 -3 39 -13 51 -24 11 -11 23 -16 27 -13 13 13 -42 44
-75 43 l-33 -2 30 -4z"/>
<path d="M3018 3243 c7 -3 16 -2 19 1 4 3 -2 6 -13 5 -11 0 -14 -3 -6 -6z"/>
<path d="M2784 2972 c-62 -93 -76 -120 -72 -134 4 -12 76 88 107 150 37 73 19
65 -35 -16z"/>
<path d="M2046 2369 c-32 -25 -35 -70 -6 -99 26 -26 100 -28 123 -2 65 73 -38
163 -117 101z"/>
<path d="M1763 2363 c-2 -6 -3 -54 -1 -106 l3 -96 -21 20 c-52 49 -146 44
-198 -9 -73 -78 -75 -292 -3 -371 53 -57 138 -63 192 -14 l28 27 21 -27 c19
-24 29 -27 79 -27 l57 0 0 305 c0 284 -1 305 -17 306 -10 0 -44 1 -77 2 -37 1
-60 -2 -63 -10z m-18 -287 c14 -10 20 -30 23 -80 5 -81 -12 -116 -58 -116 -45
0 -63 35 -58 114 2 35 10 71 17 80 16 20 51 21 76 2z"/>
<path d="M612 2314 c-106 -53 -147 -138 -140 -292 6 -137 47 -207 148 -250 44
-19 180 -20 235 -1 l40 14 3 68 c2 37 1 67 -1 67 -3 0 -24 -7 -48 -16 -99 -35
-177 -15 -205 51 -30 72 -11 200 34 236 30 23 107 26 159 4 19 -8 37 -15 38
-15 2 0 11 24 21 53 9 28 19 57 21 64 7 19 -92 43 -177 43 -62 0 -86 -5 -128
-26z"/>
<path d="M3678 2328 c-48 -13 -123 -78 -150 -132 -33 -63 -37 -202 -9 -278 24
-62 78 -119 140 -146 49 -21 207 -21 284 2 l57 17 0 154 0 155 -125 0 -125 0
0 -60 0 -60 50 0 50 0 0 -45 0 -45 -54 0 c-44 0 -60 5 -85 26 -72 60 -66 221
11 275 29 21 77 22 196 7 20 -3 27 5 43 47 10 28 17 55 15 61 -11 30 -213 45
-298 22z"/>
<path d="M1135 2209 c-58 -14 -101 -48 -131 -102 -23 -43 -26 -57 -22 -132 3
-74 7 -88 33 -127 97 -137 319 -122 386 26 38 84 20 212 -40 280 -42 48 -149
74 -226 55z m101 -123 c16 -12 19 -27 19 -101 0 -74 -3 -89 -19 -101 -27 -19
-52 -18 -76 6 -16 16 -20 33 -20 95 0 62 4 79 20 95 24 24 49 25 76 6z"/>
<path d="M2497 2206 c-21 -8 -46 -21 -56 -30 -24 -21 -28 -20 -35 9 -6 23 -11
25 -66 25 l-60 0 0 -225 0 -226 78 3 77 3 2 125 c2 69 5 135 8 147 12 53 71
71 99 31 13 -18 16 -52 16 -166 l0 -143 78 3 77 3 -1 171 c-1 186 -8 214 -64
255 -35 25 -107 32 -153 15z"/>
<path d="M2933 2210 c-87 -18 -123 -63 -123 -154 0 -47 4 -60 29 -88 l29 -33
-24 -28 c-29 -34 -30 -56 -3 -91 16 -21 17 -26 5 -26 -30 0 -67 -44 -73 -87
-5 -39 -2 -46 29 -77 45 -45 101 -60 206 -53 146 9 222 68 222 171 0 94 -33
117 -175 125 -82 5 -100 9 -103 22 -2 14 9 17 65 21 118 7 168 49 168 144 0
49 2 55 28 65 23 10 27 17 27 50 l0 39 -97 0 c-54 0 -114 2 -133 4 -19 3 -54
1 -77 -4z m91 -96 c19 -18 21 -85 4 -102 -7 -7 -22 -12 -35 -12 -43 0 -59 74
-23 110 24 24 34 25 54 4z m66 -385 c5 -6 6 -18 3 -25 -11 -29 -123 -45 -164
-24 -26 14 -24 48 4 60 30 13 148 5 157 -11z"/>
<path d="M4745 2214 c-45 -6 -108 -25 -122 -36 -9 -7 -8 -18 5 -46 27 -61 29
-62 69 -46 45 19 112 15 127 -8 5 -9 8 -19 5 -22 -2 -3 -36 -8 -74 -12 -85 -8
-150 -36 -170 -75 -23 -44 -19 -120 8 -160 43 -63 148 -75 218 -24 41 31 43
31 57 0 10 -22 18 -25 67 -25 l55 0 0 163 c0 185 -12 228 -71 265 -34 20 -119
33 -174 26z m85 -282 c0 -37 -30 -64 -67 -60 -24 3 -28 8 -28 33 0 32 30 55
73 55 18 0 22 -6 22 -28z"/>
<path d="M5307 2206 c-21 -8 -47 -22 -58 -32 -17 -16 -22 -16 -29 -4 -6 8 -10
21 -10 28 0 8 -19 12 -60 12 l-60 0 0 -225 0 -226 76 3 77 3 3 134 c5 154 14
185 60 189 52 5 59 -13 62 -180 l4 -148 74 0 74 0 0 173 c0 144 -3 178 -18
207 -31 62 -122 92 -195 66z"/>
<path d="M2024 2197 c-2 -7 -3 -107 -2 -222 l3 -210 78 -3 77 -3 0 226 0 225
-75 0 c-52 0 -77 -4 -81 -13z"/>
<path d="M4050 2205 c0 -3 38 -102 85 -220 83 -207 85 -216 71 -244 -17 -33
-34 -41 -82 -41 l-35 0 3 -62 3 -63 55 -3 c70 -3 134 27 172 83 21 29 218 530
218 552 0 2 -36 3 -79 3 l-79 0 -20 -62 c-11 -35 -30 -97 -42 -138 l-22 -75
-13 35 c-8 19 -27 81 -45 138 l-31 102 -79 0 c-44 0 -80 -2 -80 -5z"/>
</g>
</svg>
